<svg xmlns="http://www.w3.org/2000/svg" version="1.1" xmlns:xlink="http://www.w3.org/1999/xlink" xmlns:svgjs="http://svgjs.com/svgjs" width="512" height="512" x="0" y="0" viewBox="0 0 496.008 496.008" style="enable-background:new 0 0 512 512" xml:space="preserve" class=""><g>
<g xmlns="http://www.w3.org/2000/svg">
	<g>
		<g>
			<path d="M463.62,328.12c-2.664-41.237-25.709-76.419-59.106-95.873l27.226-21.783c5.256-4.208,8.264-10.48,8.264-17.208     c0-8.824-5.24-16.768-13.36-20.248l-38.946-16.688l2.77-6.928c1.024-2.544,1.536-5.224,1.536-7.968     c0-11.808-9.608-21.416-21.416-21.416H317.42c-11.808,0-21.416,9.608-21.416,21.416c0,2.744,0.512,5.424,1.528,7.952l2.776,6.941     l-38.952,16.691c-8.112,3.472-13.352,11.424-13.352,20.248c0,6.736,3.008,13,8.264,17.216l27.224,21.776     c-33.396,19.455-56.44,54.636-59.104,95.872c-20.624,18.248-32.384,44.248-32.384,71.888c0,52.936,43.064,96,96,96h112     c52.936,0,96-43.072,96-96C496.004,372.368,484.244,346.368,463.62,328.12z M317.42,136.008h53.168     c2.984,0,5.416,2.432,5.416,5.416c0,0.688-0.128,1.36-0.384,2.016l-18.24,45.6l14.856,5.944l9.52-23.805l38.584,16.533     c2.224,0.952,3.664,3.128,3.664,5.544c0,1.848-0.824,3.568-2.256,4.72l-33.155,26.519c-8.067-3.209-16.57-5.564-25.398-6.969     l4.214-10.529l-14.854-5.946l-5.999,14.987c-0.849-0.018-1.699-0.031-2.553-0.031c-0.86,0-1.717,0.013-2.573,0.031     l-29.043-72.615c-0.256-0.632-0.384-1.304-0.384-2C312.004,138.44,314.428,136.008,317.42,136.008z M266.268,197.968     c-1.44-1.152-2.264-2.872-2.264-4.712c0-2.416,1.44-4.592,3.656-5.544l38.592-16.537l18.542,46.354     c-8.819,1.405-17.313,3.758-25.372,6.963L266.268,197.968z M400.004,480.008h-112c-44.112,0-80-35.888-80-80     c0-24.04,10.672-46.584,29.28-61.856l2.792-2.288l0.128-3.608c2.008-56.216,47.608-100.248,103.8-100.248     s101.792,44.032,103.8,100.248l0.128,3.608l2.792,2.288c18.608,15.272,29.28,37.824,29.28,61.856     C480.004,444.12,444.116,480.008,400.004,480.008z" fill="#ffffff" data-original="#000000" class=""></path>
			<path d="M364.004,304.008h-12v-16h-16v16h-12c-15.44,0-28,11.664-28,26v12c0,14.336,12.56,26,28,26h40c6.616,0,12,4.488,12,10v12     c0,5.512-5.384,10-12,10h-40c-6.616,0-12-4.488-12-10h-16c0,14.336,12.56,26,28,26h12v16h16v-16h12c15.44,0,28-11.664,28-26v-12     c0-14.336-12.56-26-28-26h-40c-6.616,0-12-4.488-12-10v-12c0-5.512,5.384-10,12-10h40c6.616,0,12,4.488,12,10v6h16v-6     C392.004,315.672,379.444,304.008,364.004,304.008z" fill="#ffffff" data-original="#000000" class=""></path>
			<path d="M234.132,162.464c-1.2-14.832-13.84-26.456-28.784-26.456c-15.672,0-28.624,12.68-28.88,28.264     c-0.177,11.016-1.036,25.378-3.579,40.731c-8.796-17.157-14.923-33.552-18.685-49.987c-1.479-6.463-2.914-13.822-4.073-21.823     l56.897-56.905c5.792-5.784,8.976-13.48,8.976-21.656c0-16.888-13.736-30.624-30.632-30.632c-8.176,0-15.872,3.192-21.656,8.976     l-5.564,5.564c2.247-8.891,0.511-18.126-4.924-25.66C147.324,4.696,138.156,0,128.06,0c-13.832,0-25.792,8.944-29.768,22.264     c-8.2,27.496-19.376,87.336-2.152,179.208c8.623,45.971-2.197,78.144-32.136,95.85v-25.314h-64v176h64v-23.79     c2.931-0.419,5.95-0.788,9.08-1.162c25.912-3.104,58.152-6.968,100.576-49.392C238.404,308.928,237.516,204.4,234.132,162.464z      M175.028,44.288c2.768-2.768,6.44-4.288,10.344-4.288c8.072,0,14.632,6.568,14.632,14.632c0,3.912-1.52,7.584-4.288,10.352     L148,112.7c-0.846-13.593-0.591-28.241,1.619-43.085l0.041,0.041L175.028,44.288z M48.004,432.008h-32v-144h32V432.008z      M162.348,362.352c-38.512,38.504-66.488,41.856-91.168,44.816c-2.444,0.29-4.823,0.581-7.176,0.893v-92.629     c30.321-14.438,61.091-46.359,47.872-116.896c-16.6-88.56-6.024-145.584,1.76-171.696c1.928-6.48,7.728-10.832,14.432-10.832     c4.88,0,9.328,2.272,12.184,6.24c2.856,3.968,3.608,8.896,2.064,13.536l-5.44,16.304c-0.392,1.2-0.744,2.44-1.024,3.688     c-8.28,38.848-3.08,77.344,2.752,102.808c4.376,19.12,11.656,38.088,22.272,57.984c2.625,4.917,4.674,9.675,6.141,14.196     c-5.679,18.989-14.638,37.557-28.669,51.588l11.312,11.312c36.024-36.024,42.288-96.376,42.808-129.136     c0.104-6.904,5.888-12.52,12.88-12.52c6.672,0,12.304,5.16,12.84,11.744C221.388,203.472,222.364,302.328,162.348,362.352z" fill="#ffffff" data-original="#000000" class=""></path>
		</g>
	</g>
</g>
<g xmlns="http://www.w3.org/2000/svg">
</g>
<g xmlns="http://www.w3.org/2000/svg">
</g>
<g xmlns="http://www.w3.org/2000/svg">
</g>
<g xmlns="http://www.w3.org/2000/svg">
</g>
<g xmlns="http://www.w3.org/2000/svg">
</g>
<g xmlns="http://www.w3.org/2000/svg">
</g>
<g xmlns="http://www.w3.org/2000/svg">
</g>
<g xmlns="http://www.w3.org/2000/svg">
</g>
<g xmlns="http://www.w3.org/2000/svg">
</g>
<g xmlns="http://www.w3.org/2000/svg">
</g>
<g xmlns="http://www.w3.org/2000/svg">
</g>
<g xmlns="http://www.w3.org/2000/svg">
</g>
<g xmlns="http://www.w3.org/2000/svg">
</g>
<g xmlns="http://www.w3.org/2000/svg">
</g>
<g xmlns="http://www.w3.org/2000/svg">
</g>
</g></svg>